# xmcd
#
# Track frame offsets: 
#        150
#        12376
#        24717
#        37619
#        50930
#        62318
#        75128
#        87427
#        100718
#        113289
#        124950
#        137228
#        149580
#        162905
#        175017
#        186274
#        200378
#        212785
#
# Disc length: 2997 seconds
#
# Revision: 0
# Processed by: cddbd v1.5.2PL0 Copyright (c) Steve Scherf et al.
# Submitted via: ExactAudioCopy v0.99pb5
#
DISCID=ed0bb312
DTITLE=Various Artist - Smithsonian Collection of Classic Country Music Disc 
DTITLE=05
DYEAR=1981
DGENRE=Country
TTITLE0=Grandpa Jones - Eight More Miles to Louisville
TTITLE1=Cowboy Copas - Filipino Baby
TTITLE2=Blue Sky Boys - Kentucky
TTITLE3=Moon Mullican - New Jole Blon
TTITLE4=Slim Whitman - Bandera Waltz
TTITLE5=Hank Snow - I'm Moving On
TTITLE6=Leon Payne - I Love You Because
TTITLE7=Pee Wee King - Tennessee Waltz
TTITLE8=Molly O'Day - The Tramp on the Street
TTITLE9=Martha Carson - Satisfied
TTITLE10=Floyd Tillman- Slipping Around
TTITLE11=Lefty Frizzell - I Love You a Thousand Ways
TTITLE12=Carl Smith - Darlin' Am I the One
TTITLE13=Hank Thompson - The Wild Side of Life
TTITLE14=Kitty Wells - It Wasn't God Who Made Honky Tonk Angels
TTITLE15=Wilma Lee and Stoney Cooper - Thirty Pieces of Silver
TTITLE16=Hank Williams - I'm So Lonesome I Could Cry
TTITLE17=Hank Williams - Lovesick Blues
EXTD=
EXTT0=
EXTT1=
EXTT2=
EXTT3=
EXTT4=
EXTT5=
EXTT6=
EXTT7=
EXTT8=
EXTT9=
EXTT10=
EXTT11=
EXTT12=
EXTT13=
EXTT14=
EXTT15=
EXTT16=
EXTT17=
PLAYORDER=
